#!OML:ASF F:\VICON\USERDATA\INSTALL\rory3\rory3.ASF
:FULLY-SPECIFIED
:DEGREES
906
root -0.0456849 17.45 0.168397 5.52863 0.330805 0.476868
lowerback -1.2623 0.596774 -1.16433
upperback -1.97874 0.821484 2.05031
thorax -1.36756 0.444279 2.75734
lowerneck -5.57204 -17.3737 -22.2869
upperneck 5.71495 -25.424 28.6892
head 9.74682 -11.7622 9.53327
rclavicle -2.84262e-014 -2.8625e-014
rhumerus -32.2293 24.9122 -98.5589
rradius 23.3363
rwrist 28.655
rhand 3.45122 19.249
rfingers 7.12502
rthumb 28.8916 -8.53332
lclavicle -2.84262e-014 -2.8625e-014
lhumerus -30.9064 5.42988 88.9427
lradius 15.426
lwrist -20.471
lhand -5.42396 19.0519
lfingers 7.12502
lthumb 20.386 48.0018
rfemur 4.24379 17.0513 19.2723
rtibia 0
rfoot -5.97896 -17.8312
rtoes -17.1594
lfemur -1.8179 -13.0437 -19.31
ltibia 10.0837
lfoot -12.8572 6.88177
ltoes -17.075
907
root -0.0348157 17.455 0.151808 5.66982 0.286931 0.590787
lowerback -1.14114 0.560642 -1.13026
upperback -1.99902 0.773236 2.05279
thorax -1.45315 0.420691 2.73938
lowerneck -5.70178 -17.3039 -22.158
upperneck 5.49934 -25.2751 28.805
head 9.66346 -11.6841 9.58251
rclavicle 7.97623e-015 -1.27222e-014
rhumerus -32.2567 25.0177 -98.6375
rradius 23.151
rwrist 28.5251
rhand 2.88836 19.3535
rfingers 7.12502
rthumb 28.3539 -8.51949
lclavicle 7.97623e-015 -1.27222e-014
lhumerus -31.047 4.58305 89.6434
lradius 15.6081
lwrist -19.3683
lhand -5.03508 19.0261
lfingers 7.12502
lthumb 20.7597 47.9357
rfemur 4.00756 17.0825 19.0336
rtibia 4.77083e-015
rfoot -5.88413 -17.8293
rtoes -17.518
lfemur -1.91306 -13.0115 -19.4359
ltibia 9.86194
lfoot -12.6308 6.9307
ltoes -17.5015
908
root -0.0254795 17.4595 0.135282 5.79475 0.274332 0.672922
lowerback -1.0214 0.538533 -1.09218
upperback -1.99217 0.743991 2.09588
thorax -1.51176 0.406372 2.76126
lowerneck -5.76071 -17.2758 -22.1191
upperneck 5.18062 -25.1758 28.9686
head 9.56871 -11.6394 9.65029
rclavicle 6.42323e-015 -3.97569e-015
rhumerus -32.2857 25.1259 -98.6312
rradius 23.0943
rwrist 28.3619
rhand 2.57099 19.4171
rfingers 7.12502
rthumb 28.0505 -8.50594
lclavicle 6.42323e-015 -3.97569e-015
lhumerus -31.0968 4.45033 90.0655
lradius 15.6004
lwrist -19.4248
lhand -4.73933 18.6776
lfingers 7.12502
lthumb 21.0438 47.5558
rfemur 3.79822 17.0849 18.8415
rtibia -3.18055e-015
rfoot -5.80411 -17.8079
rtoes -16.5655
lfemur -2.03818 -13.0068 -19.5036
ltibia 9.70557
lfoot -12.4702 6.96001
ltoes -17.8875
909
root -0.0161811 17.4638 0.119997 5.99548 0.336205 0.747978
lowerback -1.02581 0.527743 -1.00842
upperback -1.96028 0.729486 2.12524
thorax -1.47497 0.397472 2.74458
lowerneck -5.90644 -17.2957 -22.0886
upperneck 4.85218 -25.1322 29.1554
head 9.50779 -11.6121 9.7044
rclavicle 2.04251e-014 7.95139e-016
rhumerus -32.2048 25.0796 -98.5158
rradius 23.0555
rwrist 28.2909
rhand 2.29407 19.5093
rfingers 7.12502
rthumb 27.7858 -8.45679
lclavicle 2.04251e-014 7.95139e-016
lhumerus -30.9906 4.33605 90.4692
lradius 15.4966
lwrist -19.8555
lhand -4.37836 18.6406
lfingers 7.12502
lthumb 21.3906 47.4799
rfemur 3.52196 17.0113 18.6428
rtibia 4.77083e-015
rfoot -5.8102 -17.7859
rtoes -15.6257
lfemur -2.27416 -13.0747 -19.5286
ltibia 9.5725
lfoot -12.2345 6.97647
ltoes -18.4782
910
root -0.00575606 17.4668 0.104414 6.18752 0.376173 0.73733
lowerback -1.00413 0.541725 -0.812796
upperback -1.93385 0.748176 2.16598
thorax -1.45888 0.403943 2.67622
lowerneck -6.05678 -17.3229 -22.0768
upperneck 4.53702 -25.1009 29.347
head 9.45939 -11.59 9.75962
rclavicle -6.95746e-015 -2.38542e-014
rhumerus -32.1073 24.8422 -98.3763
rradius 23.0233
rwrist 28.2837
rhand 1.89031 19.4736
rfingers 7.12502
rthumb 27.3997 -8.55419
lclavicle -6.95746e-015 -2.38542e-014
lhumerus -30.871 3.73197 91.0945
lradius 15.4704
lwrist -20.1216
lhand -4.44729 18.8021
lfingers 7.12502
lthumb 21.3244 47.6488
rfemur 3.22627 16.9678 18.5328
rtibia -1.59028e-015
rfoot -5.82745 -17.7878
rtoes -16.8067
lfemur -2.52947 -13.1128 -19.4843
ltibia 9.52004
lfoot -12.1142 7.00063
ltoes -18.7925
911
root 0.00437568 17.4688 0.086857 6.32469 0.379975 0.814737
lowerback -0.848499 0.558109 -0.73358
upperback -1.94529 0.77108 2.18645
thorax -1.55836 0.415359 2.65099
lowerneck -6.16176 -17.3155 -22.0674
upperneck 4.28341 -25.0327 29.4907
head 9.40411 -11.5545 9.81397
rclavicle 2.45996e-015 6.36111e-015
rhumerus -32.1087 24.5471 -98.2385
rradius 23.0221
rwrist 28.5114
rhand 1.35867 19.4985
rfingers 7.12502
rthumb 26.8911 -8.60873
lclavicle 2.45996e-015 6.36111e-015
lhumerus -30.8361 3.11829 91.694
lradius 15.4572
lwrist -20.6511
lhand -4.92604 18.8115
lfingers 7.12502
lthumb 20.8645 47.7095
rfemur 2.97312 16.9512 18.3354
rtibia -1.59028e-015
rfoot -5.92378 -17.7227
rtoes -18.1521
lfemur -2.75133 -13.1255 -19.5482
ltibia 9.52127
lfoot -12.1486 6.90799
ltoes -17.9363
